<?xml version="1.0" encoding="UTF-8" standalone="no"?>
<!-- Created with Inkscape (http://www.inkscape.org/) -->

<svg
   width="1900"
   height="1900"
   id="svg5594"
   version="1.1"
   inkscape:version="1.1 (c68e22c387, 2021-05-23)"
   sodipodi:docname="Hundred.svg"
   xmlns:inkscape="http://www.inkscape.org/namespaces/inkscape"
   xmlns:sodipodi="http://sodipodi.sourceforge.net/DTD/sodipodi-0.dtd"
   xmlns="http://www.w3.org/2000/svg"
   xmlns:svg="http://www.w3.org/2000/svg"
   xmlns:rdf="http://www.w3.org/1999/02/22-rdf-syntax-ns#"
   xmlns:cc="http://creativecommons.org/ns#"
   xmlns:dc="http://purl.org/dc/elements/1.1/">
  <defs
     id="defs5596" />
  <sodipodi:namedview
     id="base"
     pagecolor="#ffffff"
     bordercolor="#666666"
     borderopacity="1.0"
     inkscape:pageopacity="0.0"
     inkscape:pageshadow="2"
     inkscape:zoom="0.13747574"
     inkscape:cx="1643.9264"
     inkscape:cy="1211.1228"
     inkscape:document-units="px"
     inkscape:current-layer="layer2"
     showgrid="false"
     inkscape:window-width="1600"
     inkscape:window-height="837"
     inkscape:window-x="-8"
     inkscape:window-y="-8"
     inkscape:window-maximized="1"
     inkscape:object-nodes="false"
     inkscape:snap-smooth-nodes="false"
     inkscape:snap-nodes="false"
     inkscape:pagecheckerboard="0" />
  <metadata
     id="metadata5599">
    <rdf:RDF>
      <cc:Work
         rdf:about="">
        <dc:format>image/svg+xml</dc:format>
        <dc:type
           rdf:resource="http://purl.org/dc/dcmitype/StillImage" />
      </cc:Work>
    </rdf:RDF>
  </metadata>
  <g
     inkscape:groupmode="layer"
     id="layer2"
     inkscape:label="Tô 0"
     transform="translate(0,-202.36218)">
    <path
       style="color:#000000;display:inline;overflow:visible;visibility:visible;fill:#000000;fill-opacity:1;stroke:none;stroke-width:2.9999;marker:none;enable-background:accumulate"
       d="m 834,36 c -220.9139,0 -400,179.0861 -400,400 0,220.9139 179.0861,400 400,400 117.33499,0 221.4799,-51.80305 296.0312,-131 5.9109,-6.27913 11.8836,-12.51912 17.875,-18.75 C 1221.218,777.55713 1333.7917,836 1460,836 c 220.9139,0 400,-179.0861 400,-400 0,-220.9139 -179.0861,-400 -400,-400 -112.0871,0 -213.0499,46.449653 -286.0312,120.375 -9.4702,9.5926 -18.962,19.15116 -28.4688,28.71875 C 1072.1793,94.177749 959.89311,36 834,36 Z m 0,50 c 112.11666,0 211.9423,52.72093 276,134.71875 -43.5952,43.61844 -87.405,87.09251 -131,130.6875 C 949.66565,300.36465 894.59494,266 831.5,266 c -93.88841,0 -170,76.1116 -170,170 0,63.086 34.3766,118.13126 85.40625,147.46875 L 706.4375,623.9375 C 668.97695,661.39835 622.69331,678.027 575.84375,672.34375 518.81187,610.07559 484,527.09417 484,436 484,242.7003 640.70034,86 834,86 Z m 626,0 c 78.8632,-0.620199 151.6321,26.08146 210.1562,70.09375 -34.6042,0.79697 -75.9621,12.91974 -103.75,41.375 -162.5907,166.49554 -335.1751,328.05137 -472.4374,472.875 C 1024.2807,743.87069 937.16538,786 834,786 c -86.04705,0 -164.83307,-31.05393 -225.78125,-82.5625 37.76662,6.30306 93.65372,-4.25402 129.125,-39.6875 C 894.87523,506.38638 1054.8571,346.23662 1209.6875,191.40625 1280.0679,121.02584 1379.3715,86.634082 1460,86 Z m 246.5312,101.84375 C 1783.2638,264.5763 1809.6423,356.33739 1810,436 c 0.8679,193.29765 -156.7003,350 -350,350 -112.6168,0 -212.8219,-53.18638 -276.8438,-135.8125 42.8725,-43.20821 86.9281,-85.67799 129.9063,-128.65625 C 1342.5329,572.04455 1397.3006,606 1460,606 c 93.8884,0 170,-76.11159 170,-170 0,-62.70141 -33.9528,-117.46781 -84.4688,-146.9375 l 51.7813,-51.78125 c 31.7458,-31.746 69.8233,-48.52158 109.2187,-49.4375 z"
       transform="translate(0,202.36218)"
       id="path6510"
       inkscape:connector-curvature="0"
       sodipodi:nodetypes="sssscsssscssccsscscssscssscssscssccsscsc" />
    <path
       style="color:#000000;display:inline;overflow:visible;visibility:visible;fill:#000000;fill-opacity:1;fill-rule:nonzero;stroke:none;stroke-width:3;marker:none;enable-background:accumulate"
       d="m 214,248.36218 c -5.54,0.003 -10,4.47278 -10,10.01278 0,71.77452 -65.49887,129.98722 -140,129.98722 -5.54,0 -10,4.46 -10,10 v 194 c 0,5.42986 4.488537,10 10,10 36.66667,0 73.33333,0 110,0 v 372 H 94 c -5.54,0 -10,4.46 -10,10 v 30.00002 c 0,5.54 4.46,10 10,10 h 440 c 5.54,0 10,-4.46 10,-10 v -30.00002 c 0,-5.54 -4.46,-10 -10,-10 h -90 v -716 c 0,-5.54 -4.46,-10.00129 -10,-10 -74.99912,0.0175 -152.10556,-0.033 -220,0 z m 36,50 h 144 v 676 H 224 v -412.4247 c 0,-5.54 -4.46007,-9.60233 -10,-9.5753 -36.74827,0.1793 -73.13851,0 -110,0 v -120 c 68.41456,-7.7733 129.69042,-69.85728 146,-134 z"
       id="path6492"
       inkscape:connector-curvature="0"
       sodipodi:nodetypes="ssssssccsssssssscsssccccssccc" />
    <path
       style="fill:#ffff00;fill-opacity:1;stroke-width:7.27401"
       d="M 225.49433,560.09882 V 349.15251 h -58.19208 -58.19209 v -57.40352 c 0,-53.45448 1.12593,-57.68812 16.36652,-61.54046 38.16239,-9.64623 85.18486,-48.07406 107.74837,-88.0544 l 22.75406,-40.31798 h 68.40873 68.40874 v 334.60449 334.60449 h -83.65113 -83.65112 z"
       id="path1170"
       transform="translate(0,202.36218)" />
    <path
       style="fill:#ffff00;fill-opacity:1;stroke-width:7.27401"
       d="m 782.85444,777.29329 c -43.50016,-6.05997 -136.09398,-44.02882 -150.91108,-61.88233 -6.56182,-7.90651 -3.66612,-9.83192 14.78656,-9.83192 50.92131,0 73.17288,-18.62967 342.53553,-286.78079 249.94195,-248.81776 268.69855,-265.82343 320.05645,-290.17909 73.0249,-34.630851 136.6194,-45.366962 202.7028,-34.220556 44.5906,7.521186 139.1757,44.307996 139.1757,54.129366 0,2.01603 -13.9115,7.36731 -30.9145,11.89172 -26.9923,7.18251 -65.9845,43.08665 -307.327,282.98793 -162.7913,161.81913 -289.8675,282.30199 -309.1454,293.10537 -66.50737,37.27083 -143.77919,51.53215 -220.95906,40.7803 z"
       id="path1209"
       transform="translate(0,202.36218)" />
    <path
       style="fill:#ffff00;fill-opacity:1;stroke-width:7.27401"
       d="M 546.21685,624.83215 C 422.43091,439.46125 509.63511,182.78132 721.11853,110.02035 845.23751,67.317165 983.1104,97.947095 1071.721,187.91041 l 33.8398,34.35646 -62.1855,61.62432 -62.1856,61.62432 -14.81603,-20.0889 c -8.14882,-11.04889 -30.06324,-29.05206 -48.6987,-40.00706 -28.36782,-16.67621 -42.17027,-19.883 -84.80075,-19.70213 -56.5056,0.23975 -94.12156,15.39227 -128.72782,51.85437 -63.30944,66.70457 -57.1974,187.76743 12.57246,249.02617 l 24.69957,21.68651 -35.37473,29.6174 c -40.27442,33.71965 -77.54896,51.30711 -108.73933,51.30711 -18.17308,0 -25.98542,-6.78613 -51.08752,-44.37683 z"
       id="path1248"
       transform="translate(0,202.36218)" />
    <path
       style="fill:#800000;fill-opacity:1;stroke-width:7.27401"
       d="m 1403.8841,777.33036 c -22.0039,-3.60603 -62.9202,-17.49811 -90.9252,-30.8713 -51.6213,-24.6507 -120.0211,-78.51168 -120.0211,-94.50981 0,-4.81214 27.1068,-33.55784 60.2374,-63.87933 l 60.2375,-55.12998 27.8086,28.14459 c 66.5319,67.33587 187.3347,62.58852 248.3373,-9.75926 29.3536,-34.81274 41.8896,-69.47725 41.6158,-115.07629 -0.2978,-49.6173 -16.4775,-89.94988 -49.8057,-124.15572 l -25.4774,-26.14823 43.2721,-40.06235 c 28.1536,-26.06529 53.524,-42.66456 72.615,-47.51037 27.0747,-6.87228 30.6966,-5.97132 46.8562,11.65551 99.3926,108.41694 114.3837,283.6223 34.8699,407.53387 -27.701,43.16825 -80.0139,93.22229 -124.2325,118.86816 -61.6323,35.74542 -154.268,52.55576 -225.3879,40.90051 z"
       id="path1287"
       transform="translate(0,202.36218)" />
    <path
       style="fill:#ffff00;fill-opacity:1;stroke-width:7.27401"
       d="m 756.49711,766.62107 c -51.72945,-13.88774 -116.38417,-43.53385 -116.38417,-53.3656 0,-4.22204 9.25872,-7.67643 20.57494,-7.67643 11.31622,0 36.01229,-10.22528 54.88017,-22.72284 18.86787,-12.49756 147.99286,-134.42816 286.94445,-270.9569 265.67,-261.03772 287.8824,-278.95357 379.0513,-305.73236 21.7298,-6.382638 58.3855,-11.604801 81.4571,-11.604801 43.2227,0 144.1013,27.447991 169.716,46.177951 13.2726,9.7051 12.7819,10.50845 -9.3909,15.37843 -27.8191,6.1101 -67.7701,42.7825 -374.3224,343.60373 -187.1563,183.65738 -231.3877,223.40811 -269.13836,241.87425 -75.13478,36.75303 -148.9155,45.01815 -223.38813,25.02457 z"
       id="path1400"
       transform="translate(0,202.36218)" />
    <path
       style="fill:#ffff00;fill-opacity:1;stroke-width:7.27401"
       d="m 1367.0935,761.68145 c -54.3982,-18.54505 -122.3011,-57.64741 -149.6147,-86.15659 -23.6572,-24.69287 -19.509,-32.91982 45.9197,-91.06938 l 49.8244,-44.28128 30.2361,26.83224 c 54.335,48.21813 131.335,57.99823 197.4064,25.07344 20.901,-10.41537 46.3694,-29.90762 56.5965,-43.3161 20.0789,-26.32474 39.1905,-81.02016 39.1905,-112.15897 0,-36.21355 -21.4303,-91.65001 -46.9588,-121.47434 l -25.4645,-29.74958 36.3656,-34.01578 c 32.777,-30.65908 74.2786,-54.96682 93.847,-54.96682 13.7155,0 64.7473,72.53744 80.5889,114.5505 49.882,132.29027 22.6081,264.08698 -74.8093,361.50446 -52.812,52.81192 -103.3848,80.90393 -171.7256,95.38948 -67.0625,14.21458 -105.993,12.72847 -161.4022,-6.16128 z"
       id="path1476"
       transform="translate(0,202.36218)" />
    <path
       style="fill:#800000;fill-opacity:1;stroke-width:7.27401"
       d="m 756.49711,766.62107 c -51.72945,-13.88774 -116.38417,-43.53385 -116.38417,-53.3656 0,-4.22204 9.00159,-7.68867 20.00353,-7.70362 40.78797,-0.0554 61.887,-18.57656 398.50723,-349.81687 121.0961,-119.16072 203.7125,-194.62325 229.1313,-209.29048 54.0327,-31.17806 123.5977,-51.882361 174.3211,-51.882361 41.5852,0 122.0138,20.507461 162.8614,41.525931 l 21.0181,10.81505 -29.7363,13.3133 c -33.6839,15.08073 -70.7263,49.40268 -374.3345,346.84219 -180.4358,176.76972 -224.4529,216.17163 -262.02096,234.54843 -75.11331,36.74241 -148.90134,45.00567 -223.36673,25.01403 z"
       id="path1515"
       transform="translate(0,202.36218)" />
    <path
       style="fill:#ffff00;fill-opacity:1;stroke-width:7.27401"
       d="m 741.94909,757.75412 c -22.00388,-7.33218 -53.07585,-20.0945 -69.04882,-28.36072 l -29.04177,-15.02951 29.31868,-7.89469 c 38.67203,-10.4133 68.2887,-36.47302 334.27332,-294.12712 124.0219,-120.13759 243.9652,-232.07878 266.5406,-248.75821 60.7127,-44.85634 129.2915,-64.841108 204.7463,-59.66574 55.322,3.79448 150.7139,29.3941 150.585,40.41137 -0.029,2.63324 -13.1849,12.28542 -29.2313,21.44927 -16.0464,9.16385 -122.5788,107.36299 -236.7388,218.22032 -388.30125,377.06753 -393.63041,381.04408 -515.93006,384.9796 -48.57676,1.56317 -75.78735,-1.33261 -105.47315,-11.22457 z"
       id="path1889"
       transform="translate(0,202.36218)" />
    <path
       style="fill:#ff0000;fill-opacity:1;stroke-width:7.27401"
       d="m 1378.2171,760.89047 c -45.6548,-14.30443 -130.231,-61.11535 -152.5936,-84.45682 -19.0572,-19.89141 -19.5806,-22.12422 -8.9791,-38.3041 6.1917,-9.44978 30.7651,-34.081 54.6076,-54.73605 42.6168,-36.91958 43.5678,-37.31381 56.2388,-23.31248 26.6507,29.4486 83.466,50.94613 134.1951,50.77612 56.3039,-0.18868 95.601,-16.00454 128.4288,-51.68858 61.7423,-67.11433 61.3712,-169.23322 -0.9117,-250.89041 l -17.6216,-23.10308 32.4633,-29.92362 c 37.5029,-34.56896 77.2535,-55.54251 93.4725,-49.3187 15.7833,6.05661 60.5349,75.4054 77.5397,120.15852 79.7985,210.01242 -90.507,446.32589 -320.2548,444.38092 -26.0046,-0.22014 -60.4678,-4.53192 -76.585,-9.58172 z"
       id="path2002"
       transform="translate(0,202.36218)" />
    <path
       style="fill:#800000;fill-opacity:1;stroke-width:7.27401"
       d="M 557.80963,634.65743 C 502.80199,554.91189 481.3128,450.36489 501.94567,362.87384 562.29925,106.95218 871.2145,8.2281936 1059.5324,184.67874 l 39.679,37.17859 -58.2334,57.64709 -58.23346,57.64709 -31.90311,-29.40726 c -40.36701,-37.20901 -74.7706,-48.71155 -131.963,-44.1207 -82.7176,6.63978 -138.5711,52.58843 -156.92514,129.09664 -14.70858,61.31226 6.59283,133.26378 52.01464,175.69411 l 20.9713,19.59012 -31.04662,25.14845 c -42.18798,34.17317 -72.86487,48.7821 -102.43623,48.7821 -20.49922,0 -28.1134,-4.75856 -43.64675,-27.27754 z"
       id="path2078"
       transform="translate(0,202.36218)" />
    <path
       style="fill:#800000;fill-opacity:1;stroke-width:7.27401"
       d="m 1349.329,744.96651 c -50.0781,-20.76336 -118.8775,-65.85866 -130.3792,-85.45843 -6.675,-11.37476 -0.5747,-20.11784 41.4463,-59.40179 l 49.2732,-46.06389 36.2847,24.41779 c 40.5908,27.31558 80.4087,35.83622 145.4734,31.12986 135.6321,-9.81074 191.9065,-177.23111 102.0081,-303.48168 l -14.359,-20.16536 23.3324,-21.79616 c 34.9595,-32.6576 67.4323,-53.20054 84.0958,-53.20054 18.8673,0 44.5697,33.60782 75.2427,98.38534 22.434,47.37774 24.0222,55.78155 24.0222,127.10899 0,72.91906 -1.1944,78.84715 -26.3811,130.93219 -32.0458,66.26932 -65.6286,106.03302 -120.0704,142.16944 -85.7201,56.89779 -203.4979,71.28518 -289.9891,35.42424 z"
       id="path2154"
       transform="translate(0,202.36218)" />
    <g
       aria-label="HYAKU"
       id="text6309"
       style="font-size:466.667px;line-height:1.25;font-family:'Arial Rounded MT Bold';-inkscape-font-specification:'Arial Rounded MT Bold, Normal'">
      <path
         d="m 213.70007,1220.2275 v 95.7031 h 146.0613 v -95.7031 q 0,-20.5079 9.11459,-30.7618 9.34245,-10.2539 24.38153,-10.2539 15.26693,0 24.60939,10.2539 9.57032,10.0261 9.57032,30.7618 v 263.1837 q 0,20.7357 -9.57032,30.9896 -9.57032,10.2539 -24.60939,10.2539 -15.26694,0 -24.38153,-10.2539 -9.11459,-10.4817 -9.11459,-30.9896 v -112.3373 h -146.0613 v 112.3373 q 0,20.7357 -9.57032,30.9896 -9.57032,10.2539 -24.60939,10.2539 -15.26694,0 -24.38153,-10.2539 -9.11459,-10.4817 -9.11459,-30.9896 v -263.1837 q 0,-20.5079 8.88673,-30.7618 9.11459,-10.2539 24.60939,-10.2539 15.26694,0 24.60939,10.2539 9.57032,10.0261 9.57032,30.7618 z"
         id="path19345" />
      <path
         d="m 574.63781,1483.4112 v -105.9571 l -81.57558,-126.4649 q -10.70964,-17.0899 -15.26694,-26.6602 -4.32943,-9.5703 -4.32943,-16.6341 0,-11.6211 8.88673,-20.0521 9.11459,-8.431 22.33074,-8.431 13.89975,0 20.96356,7.9753 7.29167,7.7474 21.64715,31.2174 l 62.43494,101.3998 63.11853,-101.3998 q 5.69662,-9.3424 9.57032,-15.7226 3.8737,-6.3802 8.431,-11.849 4.78516,-5.6966 10.48178,-8.6589 5.69661,-2.9622 13.89974,-2.9622 12.76043,0 21.19143,8.431 8.65886,8.2031 8.65886,19.1406 0,8.8868 -4.32943,17.7735 -4.32943,8.8867 -14.81121,24.6094 l -83.62636,128.2878 v 105.9571 q 0,20.7357 -9.57032,30.9896 -9.57032,10.2539 -24.38153,10.2539 -15.03907,0 -24.38153,-10.026 -9.34245,-10.2539 -9.34245,-31.2175 z"
         id="path19347" />
      <path
         d="m 976.13547,1481.1326 -15.95053,-41.9271 H 824.37756 l -15.95054,42.8385 q -9.34245,25.0652 -15.95053,33.9519 -6.60808,8.6588 -21.64715,8.6588 -12.76042,0 -22.55861,-9.3424 -9.79818,-9.3425 -9.79818,-21.1914 0,-6.836 2.27865,-14.1276 2.27864,-7.2917 7.51953,-20.28 l 85.44928,-216.9272 q 3.64584,-9.3425 8.65886,-22.3308 5.24089,-13.2161 10.93751,-21.875 5.92448,-8.6589 15.26694,-13.8997 9.57032,-5.4688 23.47006,-5.4688 14.12762,0 23.47007,5.4688 9.57032,5.2408 15.26694,13.6718 5.92448,8.431 9.79818,18.2292 4.10157,9.5703 10.25392,25.7487 l 87.27221,215.5601 q 10.2539,24.6094 10.2539,35.7747 0,11.6211 -9.7982,21.4193 -9.5703,9.5703 -23.2422,9.5703 -7.9753,0 -13.6719,-2.9622 -5.69659,-2.7344 -9.57029,-7.5195 -3.8737,-5.0131 -8.431,-15.0391 -4.32943,-10.2539 -7.51954,-18.0013 z m -133.98446,-92.741 h 99.80475 l -50.35811,-137.8581 z"
         id="path19349" />
      <path
         d="m 1166.1747,1220.2275 v 117.1224 l 132.8451,-138.5417 q 9.5703,-10.0261 16.1784,-14.8112 6.836,-4.7852 18.0013,-4.7852 14.5834,0 23.4701,8.6589 9.1146,8.431 9.1146,20.7357 0,14.8112 -15.2669,29.3945 l -82.2592,77.9297 94.7917,135.8074 q 10.0261,14.1276 15.0391,24.8373 5.013,10.4818 5.013,20.5078 0,11.1654 -8.8867,19.3685 -8.6589,8.2031 -23.6979,8.2031 -14.1277,0 -23.0144,-5.9244 -8.8867,-6.1524 -15.0391,-16.1784 -6.1523,-10.0261 -10.9375,-18.2292 l -79.9805,-123.047 -55.3711,53.0925 v 69.043 q 0,20.9636 -9.5703,31.2175 -9.5704,10.026 -24.6094,10.026 -8.6589,0 -16.6342,-4.5572 -7.9752,-4.5573 -12.3047,-12.3047 -3.1901,-6.3803 -3.8737,-14.8113 -0.6835,-8.4309 -0.6835,-24.3815 v -248.3725 q 0,-20.5079 8.8867,-30.7618 9.1146,-10.2539 24.6094,-10.2539 15.2669,0 24.6094,10.2539 9.5703,10.0261 9.5703,30.7618 z"
         id="path19351" />
      <path
         d="m 1443.9418,1380.8721 v -160.6446 q 0,-20.5079 9.1146,-30.7618 9.3425,-10.2539 24.3816,-10.2539 15.7226,0 24.8372,10.2539 9.3425,10.2539 9.3425,30.7618 v 164.2904 q 0,28.0274 6.1523,46.9402 6.3802,18.6849 22.3308,29.1667 15.9505,10.2539 44.6615,10.2539 39.6484,0 56.0547,-20.9636 16.4062,-21.1914 16.4062,-64.03 v -165.6576 q 0,-20.7357 9.1146,-30.7618 9.1146,-10.2539 24.3816,-10.2539 15.2669,0 24.6094,10.2539 9.5703,10.0261 9.5703,30.7618 v 160.6446 q 0,39.1927 -7.7474,65.3972 -7.5196,26.2044 -28.711,46.0287 -18.2292,16.8619 -42.3828,24.6093 -24.1537,7.7474 -56.5105,7.7474 -38.5091,0 -66.3086,-8.2031 -27.7995,-8.431 -45.3451,-25.7487 -17.5456,-17.5456 -25.7487,-44.6615 -8.2032,-27.3438 -8.2032,-65.1693 z"
         id="path19353" />
    </g>
    <g
       aria-label="A Coding Challenge"
       transform="translate(0,80.014117)"
       id="text10567"
       style="font-size:160px;line-height:1.25;-inkscape-font-specification:'sans-serif, Normal';white-space:pre;inline-size:2015.03">
      <path
         d="m 267.37109,1759.0005 h -16.48437 l -11.40625,-32.4219 h -50.3125 l -11.40625,32.4219 h -15.70313 l 42.34375,-116.3281 h 20.625 z m -32.65625,-45.7031 -20.39062,-57.1094 -20.46875,57.1094 z"
         id="path19356" />
      <path
         d="m 431.12109,1750.563 q -4.29687,1.875 -7.8125,3.5156 -3.4375,1.6406 -9.0625,3.4375 -4.76562,1.4844 -10.39062,2.5 -5.54688,1.0938 -12.26563,1.0938 -12.65625,0 -23.04687,-3.5157 -10.3125,-3.5937 -17.96875,-11.1718 -7.5,-7.4219 -11.71875,-18.8282 -4.21875,-11.4843 -4.21875,-26.6406 0,-14.375 4.0625,-25.7031 4.0625,-11.3281 11.71875,-19.1406 7.42187,-7.5782 17.89062,-11.5625 10.54688,-3.9844 23.35938,-3.9844 9.375,0 18.67187,2.2656 9.375,2.2656 20.78125,7.9688 v 18.3593 h -1.17187 q -9.60938,-8.0468 -19.0625,-11.7187 -9.45313,-3.6719 -20.23438,-3.6719 -8.82812,0 -15.9375,2.8906 -7.03125,2.8125 -12.57812,8.8282 -5.39063,5.8593 -8.4375,14.8437 -2.96875,8.9063 -2.96875,20.625 0,12.2656 3.28125,21.0938 3.35937,8.8281 8.59375,14.375 5.46875,5.7812 12.73437,8.5937 7.34375,2.7344 15.46875,2.7344 11.17188,0 20.9375,-3.8281 9.76563,-3.8282 18.28125,-11.4844 h 1.09375 z"
         id="path19358" />
      <path
         d="m 526.19922,1715.4067 q 0,21.3282 -10.9375,33.6719 -10.9375,12.3438 -29.29688,12.3438 -18.51562,0 -29.45312,-12.3438 -10.85938,-12.3437 -10.85938,-33.6719 0,-21.3281 10.85938,-33.6718 10.9375,-12.4219 29.45312,-12.4219 18.35938,0 29.29688,12.4219 10.9375,12.3437 10.9375,33.6718 z m -15.15625,0 q 0,-16.9531 -6.64063,-25.1562 -6.64062,-8.2813 -18.4375,-8.2813 -11.95312,0 -18.59375,8.2813 -6.5625,8.2031 -6.5625,25.1562 0,16.4063 6.64063,24.9219 6.64062,8.4375 18.51562,8.4375 11.71875,0 18.35938,-8.3594 6.71875,-8.4375 6.71875,-25 z"
         id="path19360" />
      <path
         d="m 619.71484,1759.0005 h -14.6875 v -9.1406 q -6.32812,5.4687 -13.20312,8.5156 -6.875,3.0469 -14.92188,3.0469 -15.625,0 -24.84375,-12.0313 -9.14062,-12.0312 -9.14062,-33.3594 0,-11.0937 3.125,-19.7656 3.20312,-8.6719 8.59375,-14.7656 5.3125,-5.9375 12.34375,-9.0625 7.10937,-3.125 14.6875,-3.125 6.875,0 12.1875,1.4844 5.3125,1.4062 11.17187,4.4531 v -37.8125 h 14.6875 z m -14.6875,-21.4844 v -50.0781 q -5.9375,-2.6563 -10.625,-3.6719 -4.6875,-1.0156 -10.23437,-1.0156 -12.34375,0 -19.21875,8.5937 -6.875,8.5938 -6.875,24.375 0,15.5469 5.3125,23.6719 5.3125,8.0469 17.03125,8.0469 6.25,0 12.65625,-2.7344 6.40625,-2.8125 11.95312,-7.1875 z"
         id="path19362" />
      <path
         d="m 664.40234,1657.1255 h -16.5625 v -15.2344 h 16.5625 z m -0.9375,101.875 h -14.6875 v -87.2656 h 14.6875 z"
         id="path19364" />
      <path
         d="m 765.49609,1759.0005 h -14.6875 v -49.6875 q 0,-6.0156 -0.70312,-11.25 -0.70313,-5.3125 -2.57813,-8.2813 -1.95312,-3.2812 -5.625,-4.8437 -3.67187,-1.6406 -9.53125,-1.6406 -6.01562,0 -12.57812,2.9687 -6.5625,2.9688 -12.57813,7.5781 v 65.1563 h -14.6875 v -87.2656 h 14.6875 v 9.6875 q 6.875,-5.7032 14.21875,-8.9063 7.34375,-3.2031 15.07813,-3.2031 14.14062,0 21.5625,8.5156 7.42187,8.5156 7.42187,24.5313 z"
         id="path19366" />
      <path
         d="m 864.55859,1749.0786 q 0,22.1875 -10.07812,32.5781 -10.07813,10.3907 -31.01563,10.3907 -6.95312,0 -13.59375,-1.0157 -6.5625,-0.9375 -12.96875,-2.7343 v -15 h 0.78125 q 3.59375,1.4062 11.40625,3.4375 7.8125,2.1093 15.625,2.1093 7.5,0 12.42188,-1.7968 4.92187,-1.7969 7.65625,-5 2.73437,-3.0469 3.90625,-7.3438 1.17187,-4.2969 1.17187,-9.6094 v -7.9687 q -6.64062,5.3125 -12.73437,7.9687 -6.01563,2.5782 -15.39063,2.5782 -15.625,0 -24.84375,-11.25 -9.14062,-11.3282 -9.14062,-31.875 0,-11.25 3.125,-19.375 3.20312,-8.2032 8.67187,-14.1407 5.07813,-5.5468 12.34375,-8.5937 7.26563,-3.125 14.45313,-3.125 7.57812,0 12.65625,1.5625 5.15625,1.4844 10.85937,4.6094 l 0.9375,-3.75 h 13.75 z m -14.6875,-14.0625 v -47.5781 q -5.85937,-2.6563 -10.9375,-3.75 -5,-1.1719 -10,-1.1719 -12.10937,0 -19.0625,8.125 -6.95312,8.125 -6.95312,23.5938 0,14.6875 5.15625,22.2656 5.15625,7.5781 17.10937,7.5781 6.40625,0 12.8125,-2.4219 6.48438,-2.5 11.875,-6.6406 z"
         id="path19368" />
      <path
         d="m 1040.7305,1750.563 q -4.2969,1.875 -7.8125,3.5156 -3.4375,1.6406 -9.0625,3.4375 -4.7657,1.4844 -10.3907,2.5 -5.5468,1.0938 -12.2656,1.0938 -12.65623,0 -23.04686,-3.5157 -10.3125,-3.5937 -17.96875,-11.1718 -7.5,-7.4219 -11.71875,-18.8282 -4.21875,-11.4843 -4.21875,-26.6406 0,-14.375 4.0625,-25.7031 4.0625,-11.3281 11.71875,-19.1406 7.42188,-7.5782 17.89063,-11.5625 10.54687,-3.9844 23.35933,-3.9844 9.375,0 18.6719,2.2656 9.375,2.2656 20.7813,7.9688 v 18.3593 h -1.1719 q -9.6094,-8.0468 -19.0625,-11.7187 -9.4531,-3.6719 -20.2344,-3.6719 -8.82811,0 -15.93748,2.8906 -7.03125,2.8125 -12.57813,8.8282 -5.39062,5.8593 -8.4375,14.8437 -2.96875,8.9063 -2.96875,20.625 0,12.2656 3.28125,21.0938 3.35938,8.8281 8.59375,14.375 5.46875,5.7812 12.73438,8.5937 7.34375,2.7344 15.46878,2.7344 11.1718,0 20.9375,-3.8281 9.7656,-3.8282 18.2812,-11.4844 h 1.0938 z"
         id="path19370" />
      <path
         d="m 1134.4023,1759.0005 h -14.6875 v -49.6875 q 0,-6.0156 -0.7031,-11.25 -0.7031,-5.3125 -2.5781,-8.2813 -1.9531,-3.2812 -5.625,-4.8437 -3.6719,-1.6406 -9.5313,-1.6406 -6.0156,0 -12.5781,2.9687 -6.5625,2.9688 -12.5781,7.5781 v 65.1563 h -14.6875 V 1637.438 h 14.6875 v 43.9844 q 6.875,-5.7032 14.2187,-8.9063 7.3438,-3.2031 15.0782,-3.2031 14.1406,0 21.5625,8.5156 7.4218,8.5156 7.4218,24.5313 z"
         id="path19372" />
      <path
         d="m 1230.4961,1759.0005 h -14.6094 v -9.2969 q -1.9531,1.3281 -5.3125,3.75 -3.2812,2.3438 -6.4062,3.75 -3.6719,1.7969 -8.4375,2.9688 -4.7657,1.25 -11.1719,1.25 -11.7969,0 -20,-7.8125 -8.2031,-7.8125 -8.2031,-19.9219 0,-9.9219 4.2187,-16.0156 4.2969,-6.1719 12.1875,-9.6875 7.9688,-3.5157 19.1406,-4.7657 11.1719,-1.25 23.9844,-1.875 v -2.2656 q 0,-5 -1.7969,-8.2812 -1.7187,-3.2813 -5,-5.1563 -3.125,-1.7969 -7.5,-2.4219 -4.375,-0.625 -9.1406,-0.625 -5.7812,0 -12.8906,1.5625 -7.1094,1.4844 -14.6875,4.375 h -0.7813 v -14.9218 q 4.2969,-1.1719 12.4219,-2.5782 8.125,-1.4062 16.0156,-1.4062 9.2188,0 16.0157,1.5625 6.875,1.4844 11.875,5.1562 4.9218,3.5938 7.5,9.2969 2.5781,5.7031 2.5781,14.1406 z m -14.6094,-21.4844 v -24.2969 q -6.7187,0.3907 -15.8594,1.1719 -9.0625,0.7813 -14.375,2.2656 -6.3281,1.7969 -10.2343,5.625 -3.9063,3.75 -3.9063,10.3907 0,7.5 4.5313,11.3281 4.5312,3.75 13.8281,3.75 7.7344,0 14.1406,-2.9688 6.4063,-3.0468 11.875,-7.2656 z"
         id="path19374" />
      <path
         d="m 1273.6211,1759.0005 h -14.6875 V 1637.438 h 14.6875 z"
         id="path19376" />
      <path
         d="m 1317.5273,1759.0005 h -14.6875 V 1637.438 h 14.6875 z"
         id="path19378" />
      <path
         d="m 1419.6367,1716.8911 h -64.2969 q 0,8.0469 2.4219,14.0625 2.4219,5.9375 6.6406,9.7656 4.0625,3.75 9.6094,5.625 5.625,1.875 12.3438,1.875 8.9062,0 17.8906,-3.5156 9.0625,-3.5937 12.8906,-7.0312 h 0.7813 v 16.0156 q -7.4219,3.125 -15.1563,5.2344 -7.7344,2.1093 -16.25,2.1093 -21.7187,0 -33.9062,-11.7187 -12.1875,-11.7969 -12.1875,-33.4375 0,-21.4063 11.6406,-33.9844 11.7187,-12.5781 30.7812,-12.5781 17.6563,0 27.1875,10.3125 9.6094,10.3125 9.6094,29.2969 z m -14.2969,-11.25 q -0.078,-11.5625 -5.8593,-17.8906 -5.7032,-6.3281 -17.4219,-6.3281 -11.7969,0 -18.8281,6.9531 -6.9532,6.9531 -7.8907,17.2656 z"
         id="path19380" />
      <path
         d="m 1514.8711,1759.0005 h -14.6875 v -49.6875 q 0,-6.0156 -0.7031,-11.25 -0.7032,-5.3125 -2.5782,-8.2813 -1.9531,-3.2812 -5.625,-4.8437 -3.6718,-1.6406 -9.5312,-1.6406 -6.0156,0 -12.5781,2.9687 -6.5625,2.9688 -12.5782,7.5781 v 65.1563 h -14.6875 v -87.2656 h 14.6875 v 9.6875 q 6.875,-5.7032 14.2188,-8.9063 7.3437,-3.2031 15.0781,-3.2031 14.1406,0 21.5625,8.5156 7.4219,8.5156 7.4219,24.5313 z"
         id="path19382" />
      <path
         d="m 1613.9336,1749.0786 q 0,22.1875 -10.0781,32.5781 -10.0782,10.3907 -31.0157,10.3907 -6.9531,0 -13.5937,-1.0157 -6.5625,-0.9375 -12.9688,-2.7343 v -15 h 0.7813 q 3.5937,1.4062 11.4062,3.4375 7.8125,2.1093 15.625,2.1093 7.5,0 12.4219,-1.7968 4.9219,-1.7969 7.6563,-5 2.7343,-3.0469 3.9062,-7.3438 1.1719,-4.2969 1.1719,-9.6094 v -7.9687 q -6.6406,5.3125 -12.7344,7.9687 -6.0156,2.5782 -15.3906,2.5782 -15.625,0 -24.8438,-11.25 -9.1406,-11.3282 -9.1406,-31.875 0,-11.25 3.125,-19.375 3.2031,-8.2032 8.6719,-14.1407 5.0781,-5.5468 12.3437,-8.5937 7.2657,-3.125 14.4532,-3.125 7.5781,0 12.6562,1.5625 5.1563,1.4844 10.8594,4.6094 l 0.9375,-3.75 h 13.75 z m -14.6875,-14.0625 v -47.5781 q -5.8594,-2.6563 -10.9375,-3.75 -5,-1.1719 -10,-1.1719 -12.1094,0 -19.0625,8.125 -6.9531,8.125 -6.9531,23.5938 0,14.6875 5.1562,22.2656 5.1563,7.5781 17.1094,7.5781 6.4062,0 12.8125,-2.4219 6.4844,-2.5 11.875,-6.6406 z"
         id="path19384" />
      <path
         d="m 1715.8867,1716.8911 h -64.2969 q 0,8.0469 2.4219,14.0625 2.4219,5.9375 6.6406,9.7656 4.0625,3.75 9.6094,5.625 5.625,1.875 12.3438,1.875 8.9062,0 17.8906,-3.5156 9.0625,-3.5937 12.8906,-7.0312 h 0.7813 v 16.0156 q -7.4219,3.125 -15.1563,5.2344 -7.7344,2.1093 -16.25,2.1093 -21.7187,0 -33.9062,-11.7187 -12.1875,-11.7969 -12.1875,-33.4375 0,-21.4063 11.6406,-33.9844 11.7187,-12.5781 30.7812,-12.5781 17.6563,0 27.1875,10.3125 9.6094,10.3125 9.6094,29.2969 z m -14.2969,-11.25 q -0.078,-11.5625 -5.8593,-17.8906 -5.7032,-6.3281 -17.4219,-6.3281 -11.7969,0 -18.8281,6.9531 -6.9532,6.9531 -7.8907,17.2656 z"
         id="path19386" />
    </g>
  </g>
</svg>
