<?xml version="1.0" encoding="UTF-8" standalone="no"?>
<!-- Created with Inkscape (http://www.inkscape.org/) -->

<svg
   width="1602.998"
   height="143"
   viewBox="0 0 424.12656 37.835418"
   version="1.1"
   id="svg5"
   sodipodi:docname="ScottKrantz2-Dark.svg"
   inkscape:version="1.1 (1:1.1+202105261517+ce6663b3b7)"
   xmlns:inkscape="http://www.inkscape.org/namespaces/inkscape"
   xmlns:sodipodi="http://sodipodi.sourceforge.net/DTD/sodipodi-0.dtd"
   xmlns="http://www.w3.org/2000/svg"
   xmlns:svg="http://www.w3.org/2000/svg">
  <sodipodi:namedview
     id="namedview7"
     pagecolor="#ffffff"
     bordercolor="#999999"
     borderopacity="1"
     inkscape:pageshadow="0"
     inkscape:pageopacity="0"
     inkscape:pagecheckerboard="0"
     inkscape:document-units="px"
     showgrid="false"
     units="px"
     inkscape:zoom="0.62805135"
     inkscape:cx="711.72525"
     inkscape:cy="306.5036"
     inkscape:window-width="1680"
     inkscape:window-height="1004"
     inkscape:window-x="1920"
     inkscape:window-y="35"
     inkscape:window-maximized="1"
     inkscape:current-layer="layer1" />
  <defs
     id="defs2" />
  <g
     inkscape:label="Layer 1"
     inkscape:groupmode="layer"
     id="layer1">
    <g
       aria-label="Scott Krantz"
       id="text4082"
       style="font-weight:bold;font-size:52.9167px;line-height:1.25;font-family:'Montserrat Subrayada';-inkscape-font-specification:'Montserrat Subrayada, Bold';letter-spacing:0px;word-spacing:0px;stroke-width:0.264583">
      <path
         d="m 33.94228,35.674953 v 2.275418 H 0.18142682 V 35.674953 H 7.3780978 Q 4.4676794,34.193285 2.086428,31.86495 L 7.0076809,25.832447 Q 12.987268,31.0712 18.067271,31.0712 q 2.275418,0 3.545419,-0.952501 1.322917,-1.005417 1.322917,-2.645835 0,-1.693334 -1.375834,-2.645834 -1.375834,-1.005418 -5.45042,-2.010835 -6.4558372,-1.534584 -9.472089,-3.968752 -2.9633351,-2.487085 -2.9633351,-7.725838 0,-5.2916702 3.7570856,-8.1491719 3.8100025,-2.85750171 9.4720895,-2.85750171 3.704168,0 7.408337,1.27000081 3.704169,1.2700007 6.455838,3.5983355 l -4.18042,6.0325033 Q 21.77144,7.3645191 16.63852,7.3645191 q -2.063751,0 -3.280835,1.0054173 -1.164168,0.9525005 -1.164168,2.5929186 0,1.587501 1.428751,2.540001 1.481668,0.952501 6.720421,2.275418 5.29167,1.270001 8.202088,3.862919 2.910419,2.592918 2.910419,7.196671 0,5.715004 -4.286253,8.837089 z"
         style="fill:#ffffff"
         id="path27666" />
      <path
         d="m 72.888897,35.674953 v 2.275418 h -38.94669 v -2.275418 h 11.37709 q -4.233336,-2.487085 -6.667504,-6.720421 -2.381251,-4.286253 -2.381251,-9.683756 0,-8.149171 5.60917,-13.652508 5.662087,-5.50333661 13.811258,-5.50333661 9.101672,0 15.240009,6.93208751 L 65.79806,12.867856 q -3.915836,-4.8683365 -9.736673,-4.8683365 -4.656669,0 -7.990421,3.0691685 -3.280836,3.016252 -3.280836,8.202088 0,5.13292 3.122086,8.255005 3.122085,3.122085 7.567087,3.122085 6.085421,0 9.94834,-4.815419 l 5.29167,5.45042 q -2.328335,2.698751 -5.238754,4.392086 z"
         style="fill:#ffffff"
         id="path27668" />
      <path
         d="m 116.59799,35.674953 v 2.275418 H 72.888801 v -2.275418 h 11.800424 q -4.339169,-2.487085 -6.879171,-6.826254 -2.487084,-4.33917 -2.487084,-9.630839 0,-8.149172 5.60917,-13.599592 5.60917,-5.50333661 13.811258,-5.50333661 8.202092,0 13.811262,5.50333661 5.60917,5.45042 5.60917,13.599592 0,5.291669 -2.54001,9.630839 -2.54,4.339169 -6.82625,6.826254 z M 105.75007,19.270776 q 0,-4.974169 -3.175,-8.466672 -3.175003,-3.4925016 -7.831672,-3.4925016 -4.603753,0 -7.778755,3.4925016 -3.175002,3.492503 -3.175002,8.466672 0,4.921253 3.175002,8.413755 3.175002,3.439586 7.778755,3.439586 4.656669,0 7.831672,-3.439586 3.175,-3.492502 3.175,-8.413755 z"
         style="fill:#ffffff"
         id="path27670" />
      <path
         d="m 148.77125,35.674953 v 2.275418 H 116.5979 v -2.275418 h 11.95917 V 8.1053529 h -10.4775 V 0.96159857 h 29.21002 V 8.1053529 H 136.81208 V 35.674953 Z"
         style="fill:#ffffff"
         id="path27672" />
      <path
         d="m 180.94459,35.674953 v 2.275418 h -32.17335 v -2.275418 h 11.95917 V 8.1053529 h -10.4775 V 0.96159857 h 29.21002 V 8.1053529 H 168.98542 V 35.674953 Z"
         style="fill:#ffffff"
         id="path27674" />
      <path
         d="m 194.9146,35.674953 v 2.275418 h -13.97 v -2.275418 z"
         style="fill:#ffffff"
         id="path27676" />
      <path
         d="m 217.19253,17.312858 13.07042,18.362095 h 4.39209 v 2.275418 h -12.38251 l -10.84792,-14.605009 -3.70417,4.127502 V 37.950371 H 194.9146 v -2.275418 h 4.55083 V 0.96159857 h 8.25501 V 16.148691 L 221.69045,0.96159857 h 10.21292 z"
         style="fill:#ffffff"
         id="path27678" />
      <path
         d="M 237.03625,35.674953 V 0.96159857 h 14.02292 q 8.62543,0 12.27668,2.91041843 3.70417,2.9104184 3.70417,9.366256 0,8.890005 -7.03792,11.482923 l 7.72583,10.953757 h 4.97417 v 2.275418 h -13.49375 l -8.20209,-11.800424 h -5.71501 v 11.800424 h -13.38792 v -2.275418 z m 14.28751,-16.66876 q 4.23333,0 5.76792,-1.375834 1.53458,-1.375835 1.53458,-4.33917 0,-3.016252 -1.5875,-4.1275022 -1.5875,-1.1112506 -5.55625,-1.1112506 h -6.19126 V 19.006193 Z"
         style="fill:#ffffff"
         id="path27680" />
      <path
         d="m 315.77625,35.674953 v 2.275418 h -13.91709 l -3.43958,-7.990422 h -15.5046 l -3.43958,7.990422 h -13.91709 v -2.275418 h 6.08542 L 286.67207,0.96159857 h 7.99042 L 309.63792,35.674953 Z m -25.08251,-23.706681 -4.65667,10.74209 h 9.26042 z"
         style="fill:#ffffff"
         id="path27682" />
      <path
         d="M 314.92953,35.674953 V 0.96159857 h 7.72584 L 340.80579,24.774113 V 0.96159857 h 8.25501 V 35.674953 h 5.13292 v 2.275418 H 340.80579 L 323.18453,14.772857 v 23.177514 h -13.38792 v -2.275418 z"
         style="fill:#ffffff"
         id="path27684" />
      <path
         d="m 385.78496,35.674953 v 2.275418 H 353.6116 v -2.275418 h 11.95918 V 8.1053529 H 355.09327 V 0.96159857 h 29.21002 V 8.1053529 H 373.82578 V 35.674953 Z"
         style="fill:#ffffff"
         id="path27686" />
      <path
         d="m 424.3083,35.674953 v 2.275418 h -41.22211 v -2.275418 h 5.13292 V 32.288284 L 407.58662,8.1053529 H 388.85411 V 0.96159857 h 30.00377 V 6.676602 L 399.54328,30.7537 h 19.6321 v 4.921253 z"
         style="fill:#ffffff"
         id="path27688" />
    </g>
  </g>
</svg>
