<?xml version="1.0" encoding="UTF-8" standalone="no"?>
<!-- Created with Inkscape (http://www.inkscape.org/) -->

<svg
   width="367.14001"
   height="367.13998"
   viewBox="0 0 367.14001 367.13998"
   version="1.1"
   id="svg2216"
   inkscape:version="1.1 (1:1.1+202105261517+ce6663b3b7)"
   sodipodi:docname="Monogram-Dark.svg"
   inkscape:export-filename="/home/scott/Pictures/Monogram-Dark.png"
   inkscape:export-xdpi="96"
   inkscape:export-ydpi="96"
   xmlns:inkscape="http://www.inkscape.org/namespaces/inkscape"
   xmlns:sodipodi="http://sodipodi.sourceforge.net/DTD/sodipodi-0.dtd"
   xmlns="http://www.w3.org/2000/svg"
   xmlns:svg="http://www.w3.org/2000/svg"
   xmlns:rdf="http://www.w3.org/1999/02/22-rdf-syntax-ns#"
   xmlns:cc="http://creativecommons.org/ns#"
   xmlns:dc="http://purl.org/dc/elements/1.1/">
  <defs
     id="defs2210" />
  <sodipodi:namedview
     id="base"
     pagecolor="#ffffff"
     bordercolor="#666666"
     borderopacity="1.0"
     inkscape:pageopacity="0.0"
     inkscape:pageshadow="2"
     inkscape:zoom="1.4"
     inkscape:cx="127.85714"
     inkscape:cy="196.07143"
     inkscape:document-units="px"
     inkscape:current-layer="layer1"
     showgrid="false"
     units="px"
     inkscape:window-width="1680"
     inkscape:window-height="1004"
     inkscape:window-x="1920"
     inkscape:window-y="35"
     inkscape:window-maximized="1"
     fit-margin-top="10"
     fit-margin-left="10"
     fit-margin-bottom="10"
     fit-margin-right="10"
     inkscape:showpageshadow="false"
     scale-x="1"
     inkscape:pagecheckerboard="0"
     inkscape:snap-intersection-paths="true"
     inkscape:snap-smooth-nodes="true" />
  <metadata
     id="metadata2213">
    <rdf:RDF>
      <cc:Work
         rdf:about="">
        <dc:format>image/svg+xml</dc:format>
        <dc:type
           rdf:resource="http://purl.org/dc/dcmitype/StillImage" />
      </cc:Work>
    </rdf:RDF>
  </metadata>
  <g
     inkscape:label="Layer 1"
     inkscape:groupmode="layer"
     id="layer1"
     transform="translate(283.10502,-116.23671)">
    <circle
       style="fill:#000000;fill-opacity:1;stroke:#ffffff;stroke-width:2.2438"
       id="path849"
       cx="-99.535011"
       cy="298.68481"
       r="172.4481" />
    <g
       aria-label="s"
       style="font-style:normal;font-variant:normal;font-weight:normal;font-stretch:normal;font-size:5.33333349px;line-height:1.25;font-family:'Open Sans';-inkscape-font-specification:'Open Sans, Normal';font-variant-ligatures:normal;font-variant-caps:normal;font-variant-numeric:normal;font-feature-settings:normal;text-align:start;letter-spacing:0px;word-spacing:0px;writing-mode:lr-tb;text-anchor:start;fill:#fffffd;fill-opacity:1;stroke:none"
       id="text824">
      <path
         d="m -112.9377,159.84904 c -54.6689,6.19326 -87.03272,38.03764 -101.27968,59.90179 -17.2092,26.23698 -28.14872,52.82971 -25.13998,95.49247 5.21919,0.98741 17.73438,1.62667 32.54558,1.20349 13.54167,-0.42317 56.13188,0.14106 62.05636,1.69271 0.42318,3.24436 0.63476,13.40061 0.63476,30.46875 0,16.50391 -0.0182,47.05659 -1.56986,49.73672 -26.3987,-9.89501 -42.78661,-26.15485 -54.35043,-49.10195 -8.81169,-0.12308 -19.31082,-0.12308 -30.7831,0 6.15854,18.59126 18.70887,34.4844 35.63596,52.82207 17.49132,18.90191 64.14498,34.90296 80.68641,35.75505 1.4106,-50.07595 0.77925,-99.08602 -0.63135,-149.30303 -4.93706,-0.98741 -15.16383,-1.199 -30.68033,-0.63477 -13.68272,0.42318 -56.06135,-0.42317 -61.4216,-2.53906 0,-11.14367 2.89171,-22.63998 8.67513,-34.48893 6.77083,-13.68273 20.89611,-47.7195 55.94727,-52.11031 0.7053,2.82118 -1.15545,34.9011 -1.29651,41.95405 -0.28212,7.19401 -0.0705,12.13108 0.63477,14.8112 10.15625,1.69271 21.06879,1.69271 30.23763,0 -0.34566,-28.12734 -0.77986,-74.28329 0.099,-95.66025 z"
         style="font-style:normal;font-variant:normal;font-weight:normal;font-stretch:normal;font-size:433.33334351px;font-family:'MONOGRAMOS left';-inkscape-font-specification:'MONOGRAMOS left';fill:#fffffd;fill-opacity:1"
         id="path825"
         inkscape:connector-curvature="0"
         sodipodi:nodetypes="cccccsccccccccccccccc" />
    </g>
    <g
       aria-label="k"
       style="font-style:normal;font-variant:normal;font-weight:normal;font-stretch:normal;font-size:5.33333349px;line-height:1.25;font-family:'Open Sans';-inkscape-font-specification:'Open Sans, Normal';font-variant-ligatures:normal;font-variant-caps:normal;font-variant-numeric:normal;font-feature-settings:normal;text-align:start;letter-spacing:0px;word-spacing:0px;writing-mode:lr-tb;text-anchor:start;fill:#ffffff;fill-opacity:1;stroke:none"
       id="text828">
      <path
         d="m 14.781859,297.17186 9.521484,-14.38802 c 5.783421,-8.46354 8.74566,-13.82378 8.886719,-16.08073 0.564236,-6.91189 -4.796007,-20.3125 -16.080729,-40.20182 -10.0151917,-17.49132 -18.6459522,-26.62605 -25.1346675,-30.43464 -0.025171,15.17892 0.5858428,17.89664 -0.1262693,38.03824 9.737775,10.44079 9.7247723,21.93424 8.8729153,31.75187 -0.5642367,5.64236 -3.173829,10.29731 -7.828777,13.96484 -5.5013015,4.37283 -42.5650415,5.07813 -49.4769345,2.11589 -0.141059,-9.87413 -0.141059,-27.15387 0,-51.8392 0.141059,-24.12109 1.391059,-51.00167 1.25,-62.42745 -10.352803,-3.6601 -20.193918,-4.84267 -31.30906,-7.11914 -1.269531,91.40625 -0.955716,185.56875 0.313815,276.975 12.413195,-2.25694 20.152123,-2.778 29.782774,-7.49785 0.705295,-11.42578 0.10353,-40.04014 -0.03753,-62.60959 -0.141059,-29.19922 -0.141059,-46.47895 0,-51.8392 6.206597,-3.24435 41.199808,-2.75065 47.2653465,1.48112 5.219184,3.8086 8.1814237,8.39302 8.886719,13.75326 2.5185835,9.32889 -2.1066516,17.28193 -9.7141935,30.46271 0.07894,15.85656 0.7901637,22.25501 2.5000005,41.05422 10.4997524,-8.94405 19.5909705,-21.24861 24.7558605,-30.46875 11.284722,-20.3125 16.644965,-33.99523 16.080729,-41.04818 -0.282118,-3.80859 -3.526476,-9.52148 -9.733073,-17.13867 -6.065538,-7.19401 -8.957249,-12.69532 -8.675129,-16.50391 z"
         style="font-style:normal;font-variant:normal;font-weight:normal;font-stretch:normal;font-size:433.33334351px;font-family:'MONOGRAMOS right';-inkscape-font-specification:'MONOGRAMOS right';fill:#ffffff;fill-opacity:1"
         id="path822"
         inkscape:connector-curvature="0"
         sodipodi:nodetypes="cccccccccccccccccccccccc" />
    </g>
    <path
       style="fill:#ffffff;fill-opacity:1;fill-rule:evenodd;stroke-width:1.06112659"
       d="m -99.535018,126.23671 a 173.57001,173.57001 0 0 0 -173.570002,173.56998 173.57001,173.57001 0 0 0 173.570002,173.56999 173.57001,173.57001 0 0 0 173.57,-173.56999 173.57001,173.57001 0 0 0 -173.57,-173.56998 z m 0,10.84808 A 162.72188,162.72188 0 0 1 63.186852,299.80669 162.72188,162.72188 0 0 1 -99.535018,462.52856 162.72188,162.72188 0 0 1 -262.25689,299.80669 162.72188,162.72188 0 0 1 -99.535018,137.08479 Z"
       id="path12"
       inkscape:connector-curvature="0" />
  </g>
</svg>
